# xmcd
#
# Track frame offsets:
#	150
#	22690
#	42173
#	66042
#	89941
#	111860
#	134515
#	150171
#	166031
#	178653
#
# Disc length: 2640 seconds
#
# Revision: 0
# Processed by: cddbd v1.5.2PL0 Copyright (c) Steve Scherf et al.
# Submitted via: dBpowerAMP V4.0
#
DISCID=760a4e0a
DTITLE=Baum - Music For My Landlord
DYEAR=2011
DGENRE=Singer/Songwriter
TTITLE0=Mrs Adams
TTITLE1=Girl
TTITLE2=Couldn't hurt you more
TTITLE3=Bloody goodbye
TTITLE4=I like it
TTITLE5=One day you will return
TTITLE6=We should be dancing
TTITLE7=She smiles
TTITLE8=Blue wheel turning
TTITLE9=Hope that we once had
EXTD=Recorded at The Cutting Room Studios in New York/USA\nProduced by Patrick Ermlich, Eshy Gazit and Baum.\nAll songs written by Baum. "Couldn't hurt you more" co-written by Baum, Misty Boyce and Eshy Gazit.\n(c) 2011 baummusic under license to Littel
EXTD=est Mojo Music/UK.\n\nsubmitted to freedb by matt f.
EXTT0=
EXTT1=
EXTT2=
EXTT3=
EXTT4=
EXTT5=
EXTT6=
EXTT7=
EXTT8=
EXTT9=
PLAYORDER=
